<svg xmlns="http://www.w3.org/2000/svg" viewBox="0 0 97.56 53.3"><defs><style>.cls-1{fill:#fff}</style></defs><g id="Capa_2" data-name="Capa 2"><g id="Capa_1-2" data-name="Capa 1"><path d="M35.37 36.56v9.95L0 31.18v-8.5L35.37 7.35v10l-24.65 9.51ZM57.23 7.14l-9.84 40.53a50.97 50.97 0 0 1-.86 3.17 3.9 3.9 0 0 1-1.13 1.81 3.27 3.27 0 0 1-2.19.65q-3.59 0-3.59-3.1a28.78 28.78 0 0 1 .7-4l9.81-40.58a18.09 18.09 0 0 1 1.48-4.42A2.9 2.9 0 0 1 54.35 0 3.89 3.89 0 0 1 57 .84a3 3 0 0 1 1 2.32 18.9 18.9 0 0 1-.77 3.98ZM97.56 31.18l-35.37 15.4v-9.95l24.72-9.7-24.72-9.56V7.49l35.37 15.26Z" class="cls-1"/></g></g></svg>